<svg width="43" height="57" viewBox="0 0 43 57" fill="none" xmlns="http://www.w3.org/2000/svg">
<path d="M19.0812 55.8322C20.0797 57.3893 22.4094 57.3893 23.4078 55.8322C39.6047 32.4761 42.6 30.0293 42.6 21.3541C42.6 9.56488 33.0594 0 21.3 0C9.42969 0 0 9.56488 0 21.3541C0 30.0293 2.88437 32.4761 19.0812 55.8322Z" fill="white"/>
<path d="M12.1611 29.8286C12.2119 29.0899 12.2627 28.3765 12.3135 27.6884C12.3643 27.0003 12.41 26.3324 12.4507 25.6848L12.9994 18.5205C13.0603 17.9741 13.1111 17.4783 13.1518 17.033C13.1924 16.5777 13.2229 16.1375 13.2432 15.7125C13.2737 15.2774 13.2991 14.8423 13.3195 14.4071C13.3499 13.9619 13.3804 13.4711 13.4109 12.9348C13.0756 12.9247 12.7199 12.9196 12.344 12.9196C11.9782 12.9196 11.592 12.9196 11.1856 12.9196H8.24387C8.1321 12.9196 8.06097 12.8792 8.03048 12.7982C8.01016 12.7071 8 12.6262 8 12.5554V12.4491L9.67662 8.0625L9.66138 8.00179C9.66138 7.95119 9.69186 7.91071 9.75283 7.88036C9.82396 7.83988 9.97638 7.80952 10.2101 7.78929C11.6123 7.70833 12.9689 7.63244 14.2797 7.56161C15.6007 7.48065 16.9013 7.40982 18.1816 7.34911C19.4721 7.28839 20.7575 7.22768 22.0379 7.16696C23.3283 7.10625 24.6544 7.0506 26.016 7C26.138 7 26.265 7.01518 26.3971 7.04554C26.5393 7.07589 26.6105 7.1872 26.6105 7.37946C26.6105 7.3997 26.6054 7.41994 26.5952 7.44018C26.5851 7.46042 26.58 7.48065 26.58 7.50089C26.4174 7.91577 26.265 8.31042 26.1227 8.68482C25.9906 9.05923 25.8585 9.42857 25.7264 9.79286C25.5943 10.1571 25.4571 10.5265 25.3149 10.9009C25.1828 11.2753 25.0355 11.6699 24.8729 12.0848C24.8627 12.0949 24.8424 12.1455 24.8119 12.2366C24.7814 12.3176 24.7357 12.4137 24.6747 12.525C24.6138 12.6262 24.5325 12.7223 24.4309 12.8134C24.3292 12.9045 24.2022 12.9551 24.0498 12.9652C23.999 12.9551 23.9482 12.95 23.8974 12.95C23.8466 12.95 23.7907 12.95 23.7297 12.95H19.6601C19.6093 13.4661 19.5585 14.0125 19.5077 14.5893C19.467 15.1661 19.4162 15.7277 19.3553 16.2741L18.2426 28.1286C18.2324 28.2196 18.2121 28.3107 18.1816 28.4018C18.1613 28.4929 18.0953 28.5586 17.9835 28.5991L13.67 30.1473C13.5582 30.1878 13.4109 30.2384 13.228 30.2991C13.0451 30.3598 12.8673 30.3902 12.6945 30.3902C12.5523 30.3902 12.4253 30.3548 12.3135 30.2839C12.2119 30.2131 12.1611 30.0815 12.1611 29.8893V29.8286Z" fill="#12B6E2"/>
<path d="M28.4556 15.0598C28.4455 15.3027 28.4251 15.6062 28.3947 15.9705C28.3642 16.3247 28.3286 16.7042 28.288 17.1089C28.2575 17.5036 28.2168 17.9083 28.166 18.3232C28.1254 18.728 28.0847 19.1024 28.0441 19.4464C28.0136 19.7905 27.9882 20.089 27.9679 20.342C27.9476 20.5848 27.9374 20.7417 27.9374 20.8125C27.8968 21.4399 27.851 22.0217 27.8002 22.558C27.7596 23.0943 27.7139 23.6256 27.663 24.1518C27.6122 24.678 27.5564 25.2244 27.4954 25.7911C27.4446 26.3476 27.3887 26.9649 27.3277 27.6429C27.2668 28.3208 27.1956 29.0747 27.1143 29.9045C27.0432 30.7342 26.967 31.6854 26.8857 32.758L33.1959 32.1205C33.4804 32.0902 33.7141 32.075 33.897 32.075C34.1206 32.075 34.2577 32.1104 34.3085 32.1813C34.3695 32.2521 34.4 32.3634 34.4 32.5152C34.4 32.5354 34.3949 32.5658 34.3848 32.6063C34.3746 32.6366 34.3492 32.7024 34.3085 32.8036C34.2781 32.9048 34.2273 33.0515 34.1561 33.2438C34.0952 33.436 34.0088 33.7042 33.897 34.0482L33.5617 35.05C33.4499 35.3738 33.3432 35.6673 33.2416 35.9304C33.1502 36.1833 33.0333 36.406 32.891 36.5982C32.7488 36.7804 32.571 36.9271 32.3576 37.0384C32.1442 37.1497 31.8698 37.2205 31.5345 37.2509C31.3211 37.2711 31.0315 37.2863 30.6657 37.2964C30.2999 37.3167 29.8782 37.3318 29.4006 37.342C28.923 37.3622 28.4048 37.3824 27.8459 37.4027C27.2972 37.4229 26.7333 37.4482 26.1541 37.4786C25.5851 37.4988 25.0109 37.5089 24.4317 37.5089C23.8525 37.519 23.3038 37.5292 22.7856 37.5393C22.2674 37.5494 21.7898 37.5595 21.3529 37.5696C20.9159 37.5798 20.5552 37.5899 20.2707 37.6C20.0065 37.6 19.8134 37.5798 19.6915 37.5393C19.5797 37.4988 19.5238 37.433 19.5238 37.342C19.5238 37.2307 19.5594 37.0688 19.6305 36.8563C19.7017 36.6539 19.7931 36.4262 19.9049 36.1732C20.0167 35.9101 20.1386 35.642 20.2707 35.3688C20.4129 35.0854 20.5501 34.8122 20.6822 34.5491L21.0938 29.1304C21.175 28.2095 21.2563 27.2735 21.3376 26.3223C21.4189 25.3711 21.49 24.4503 21.551 23.5598L21.8101 19.5375C21.8711 18.5863 21.9117 17.8982 21.9321 17.4732C21.9524 17.0381 21.9625 16.8003 21.9625 16.7598C21.9829 16.5777 21.9981 16.4259 22.0083 16.3045C22.0184 16.183 22.0337 16.0818 22.054 16.0009C22.0845 15.9199 22.1251 15.8592 22.1759 15.8188C22.2267 15.7783 22.3029 15.7479 22.4046 15.7277L27.7545 14.4679C27.8663 14.4274 28.0034 14.4071 28.166 14.4071C28.2778 14.4071 28.354 14.4426 28.3947 14.5134C28.4455 14.5741 28.4709 14.6955 28.4709 14.8777C28.4709 14.8979 28.4658 14.9283 28.4556 14.9688C28.4556 14.9991 28.4556 15.0295 28.4556 15.0598Z" fill="#12B6E2"/>
</svg>
